<mxfile host="app.diagrams.net" modified="2023-08-25T09:53:46.141Z" agent="Mozilla/5.0 (Macintosh; Intel Mac OS X 10_15_7) AppleWebKit/537.36 (KHTML, like Gecko) Chrome/115.0.0.0 Safari/537.36" version="21.6.9" etag="WZ3QQHXOFH-eKP-WPfY7" type="github">
  <diagram name="PÃ¡gina-1" id="Lha1l_dTPxhYe9wrMnBu">
    <mxGraphModel>
      <root>
        <mxCell id="0" />
        <mxCell id="1" parent="0" />
      </root>
    </mxGraphModel>
  </diagram>
</mxfile>
